NotoSansArabicUI-Bold.ufo
<glyph name="ray-ar" format="2">
  <advance width="1033"/>
  <unicode hex="0608"/>
  <anchor x="512" y="-272" name="bottom"/>
  <anchor x="769" y="412" name="top"/>
  <outline>
    <contour>
      <point x="1043" y="163" type="curve" smooth="yes"/>
      <point x="912" y="163" type="line"/>
      <point x="729" y="142"/>
      <point x="705" y="165"/>
      <point x="705" y="213" type="curve" smooth="yes"/>
      <point x="705" y="238"/>
      <point x="723" y="274"/>
      <point x="756" y="274" type="curve" smooth="yes"/>
      <point x="791" y="274"/>
      <point x="803" y="238"/>
      <point x="803" y="142" type="curve" smooth="yes"/>
      <point x="803" y="82"/>
      <point x="800" y="46"/>
      <point x="788" y="15" type="curve" smooth="yes"/>
      <point x="765" y="-48"/>
      <point x="680" y="-104"/>
      <point x="538" y="-104" type="curve" smooth="yes"/>
      <point x="409" y="-104"/>
      <point x="349" y="-50"/>
      <point x="349" y="25" type="curve" smooth="yes"/>
      <point x="349" y="65"/>
      <point x="355" y="91"/>
      <point x="383" y="169" type="curve"/>
      <point x="230" y="229" type="line"/>
      <point x="19" y="157" type="line"/>
      <point x="10" y="-11" type="line"/>
      <point x="223" y="60" type="line"/>
      <point x="202" y="167" type="line"/>
      <point x="174" y="101"/>
      <point x="172" y="39"/>
      <point x="172" y="-6" type="curve" smooth="yes"/>
      <point x="172" y="-194"/>
      <point x="322" y="-272"/>
      <point x="512" y="-272" type="curve" smooth="yes"/>
      <point x="713" y="-272"/>
      <point x="852" y="-200"/>
      <point x="919" y="-77" type="curve" smooth="yes"/>
      <point x="947" y="-26"/>
      <point x="972" y="46"/>
      <point x="972" y="124" type="curve" smooth="yes"/>
      <point x="972" y="289"/>
      <point x="907" y="412"/>
      <point x="769" y="412" type="curve" smooth="yes"/>
      <point x="635" y="412"/>
      <point x="537" y="302"/>
      <point x="537" y="176" type="curve" smooth="yes"/>
      <point x="537" y="30"/>
      <point x="683" y="-5"/>
      <point x="835" y="-5" type="curve" smooth="yes"/>
      <point x="1033" y="-5" type="line" smooth="yes"/>
      <point x="1099" y="-5"/>
      <point x="1133" y="30"/>
      <point x="1133" y="81" type="curve" smooth="yes"/>
      <point x="1133" y="126"/>
      <point x="1107" y="163"/>
    </contour>
  </outline>
</glyph>
<glyph name="misraComma-ar" format="2">
  <advance width="683"/>
  <unicode hex="060F"/>
  <outline>
    <contour>
      <point x="194" y="-286" type="line"/>
      <point x="275" y="-83"/>
      <point x="356" y="62"/>
      <point x="474" y="62" type="curve" smooth="yes"/>
      <point x="514" y="62"/>
      <point x="545" y="36"/>
      <point x="545" y="5" type="curve" smooth="yes"/>
      <point x="545" y="-42"/>
      <point x="488" y="-63"/>
      <point x="424" y="-63" type="curve" smooth="yes"/>
      <point x="313" y="-63"/>
      <point x="194" y="-25"/>
      <point x="194" y="82" type="curve" smooth="yes"/>
      <point x="194" y="185"/>
      <point x="281" y="287"/>
      <point x="542" y="333" type="curve"/>
      <point x="501" y="493" type="line"/>
      <point x="221" y="452"/>
      <point x="20" y="300"/>
      <point x="20" y="66" type="curve" smooth="yes"/>
      <point x="20" y="-132"/>
      <point x="197" y="-228"/>
      <point x="415" y="-231" type="curve" smooth="yes"/>
      <point x="586" y="-233"/>
      <point x="723" y="-150"/>
      <point x="723" y="11" type="curve" smooth="yes"/>
      <point x="723" y="120"/>
      <point x="642" y="230"/>
      <point x="483" y="230" type="curve" smooth="yes"/>
      <point x="281" y="230"/>
      <point x="147" y="70"/>
      <point x="42" y="-210" type="curve"/>
    </contour>
    <contour>
      <point x="169" y="338" type="curve"/>
      <point x="355" y="423" type="line"/>
      <point x="285" y="430"/>
      <point x="227" y="472"/>
      <point x="227" y="522" type="curve" smooth="yes"/>
      <point x="227" y="570"/>
      <point x="265" y="596"/>
      <point x="333" y="596" type="curve" smooth="yes"/>
      <point x="353" y="596"/>
      <point x="386" y="593"/>
      <point x="414" y="585" type="curve"/>
      <point x="439" y="742" type="line"/>
      <point x="396" y="753"/>
      <point x="362" y="758"/>
      <point x="313" y="758" type="curve" smooth="yes"/>
      <point x="165" y="758"/>
      <point x="48" y="670"/>
      <point x="48" y="543" type="curve" smooth="yes"/>
      <point x="48" y="430"/>
      <point x="106" y="372"/>
    </contour>
  </outline>
</glyph>
<glyph name="hah-ar" format="2">
  <advance width="733"/>
  <unicode hex="062D"/>
  <anchor x="398" y="-271" name="bottom"/>
  <anchor x="424" y="82" name="center"/>
  <anchor x="351" y="620" name="top"/>
  <outline>
    <contour>
      <point x="398" y="-271" type="curve" smooth="yes"/>
      <point x="484" y="-271"/>
      <point x="594" y="-251"/>
      <point x="703" y="-202" type="curve"/>
      <point x="653" y="-45" type="line"/>
      <point x="571" y="-78"/>
      <point x="491" y="-94"/>
      <point x="413" y="-94" type="curve" smooth="yes"/>
      <point x="332" y="-94"/>
      <point x="208" y="-70"/>
      <point x="208" y="52" type="curve" smooth="yes"/>
      <point x="208" y="270"/>
      <point x="550" y="329"/>
      <point x="676" y="339" type="curve"/>
      <point x="656" y="521" type="line"/>
      <point x="604" y="521" type="line" smooth="yes"/>
      <point x="500" y="521"/>
      <point x="384" y="620"/>
      <point x="179" y="620" type="curve" smooth="yes"/>
      <point x="129" y="620"/>
      <point x="82" y="611"/>
      <point x="42" y="600" type="curve"/>
      <point x="67" y="425" type="line"/>
      <point x="103" y="434"/>
      <point x="156" y="440"/>
      <point x="209" y="440" type="curve" smooth="yes"/>
      <point x="320" y="440"/>
      <point x="429" y="410"/>
      <point x="489" y="394" type="curve"/>
      <point x="478" y="414" type="line"/>
      <point x="246" y="386"/>
      <point x="30" y="276"/>
      <point x="30" y="26" type="curve" smooth="yes"/>
      <point x="30" y="-177"/>
      <point x="197" y="-271"/>
    </contour>
  </outline>
</glyph>
<glyph name="reh-ar" format="2">
  <advance width="435"/>
  <unicode hex="0631"/>
  <anchor x="182" y="-214" name="bottom"/>
  <anchor x="194" y="419" name="top"/>
  <outline>
    <contour>
      <point x="16" y="-231" type="line"/>
      <point x="288" y="-165"/>
      <point x="378" y="-4"/>
      <point x="378" y="141" type="curve" smooth="yes"/>
      <point x="378" y="222"/>
      <point x="337" y="328"/>
      <point x="285" y="417" type="curve"/>
      <point x="131" y="341" type="line"/>
      <point x="179" y="259"/>
      <point x="211" y="180"/>
      <point x="211" y="135" type="curve" smooth="yes"/>
      <point x="211" y="63"/>
      <point x="153" y="-27"/>
      <point x="-37" y="-76" type="curve"/>
    </contour>
  </outline>
</glyph>
<glyph name="ain-ar" format="2">
  <advance width="629"/>
  <unicode hex="0639"/>
  <anchor x="401" y="-271" name="bottom"/>
  <anchor x="323" y="645" name="top"/>
  <outline>
    <contour>
      <point x="401" y="-271" type="curve" smooth="yes"/>
      <point x="529" y="-271"/>
      <point x="651" y="-236"/>
      <point x="699" y="-211" type="curve"/>
      <point x="647" y="-55" type="line"/>
      <point x="587" y="-80"/>
      <point x="507" y="-103"/>
      <point x="401" y="-103" type="curve" smooth="yes"/>
      <point x="314" y="-103"/>
      <point x="204" y="-89"/>
      <point x="204" y="9" type="curve" smooth="yes"/>
      <point x="204" y="92"/>
      <point x="291" y="174"/>
      <point x="552" y="220" type="curve"/>
      <point x="511" y="380" type="line"/>
      <point x="231" y="329"/>
      <point x="30" y="207"/>
      <point x="30" y="-7" type="curve" smooth="yes"/>
      <point x="30" y="-227"/>
      <point x="200" y="-271"/>
    </contour>
    <contour>
      <point x="179" y="225" type="curve"/>
      <point x="365" y="310" type="line"/>
      <point x="295" y="317"/>
      <point x="237" y="359"/>
      <point x="237" y="409" type="curve" smooth="yes"/>
      <point x="237" y="457"/>
      <point x="275" y="483"/>
      <point x="343" y="483" type="curve" smooth="yes"/>
      <point x="363" y="483"/>
      <point x="396" y="480"/>
      <point x="424" y="472" type="curve"/>
      <point x="449" y="629" type="line"/>
      <point x="406" y="640"/>
      <point x="372" y="645"/>
      <point x="323" y="645" type="curve" smooth="yes"/>
      <point x="175" y="645"/>
      <point x="58" y="557"/>
      <point x="58" y="430" type="curve" smooth="yes"/>
      <point x="58" y="317"/>
      <point x="116" y="259"/>
    </contour>
  </outline>
</glyph>
<glyph name="kashida-ar" format="2">
  <advance width="330"/>
  <unicode hex="0640"/>
  <anchor x="195" y="0" name="bottom"/>
  <anchor x="175" y="458" name="top"/>
  <outline>
    <contour>
      <point x="0" y="-5" type="line"/>
      <point x="330" y="-5" type="line" smooth="yes"/>
      <point x="396" y="-5"/>
      <point x="430" y="30"/>
      <point x="430" y="81" type="curve" smooth="yes"/>
      <point x="430" y="126"/>
      <point x="404" y="163"/>
      <point x="340" y="163" type="curve" smooth="yes"/>
      <point x="10" y="163" type="line"/>
    </contour>
  </outline>
</glyph>
<glyph name="meem-ar" format="2">
  <advance width="619"/>
  <unicode hex="0645"/>
  <anchor x="329" y="0" name="bottom"/>
  <anchor x="305" y="474" name="top"/>
  <outline>
    <contour>
      <point x="42" y="-270" type="curve"/>
      <point x="206" y="-236" type="line"/>
      <point x="194" y="-179"/>
      <point x="186" y="-126"/>
      <point x="186" y="-90" type="curve" smooth="yes"/>
      <point x="186" y="48"/>
      <point x="306" y="65"/>
      <point x="530" y="12" type="curve"/>
      <point x="544" y="42"/>
      <point x="569" y="112"/>
      <point x="569" y="189" type="curve" smooth="yes"/>
      <point x="569" y="335"/>
      <point x="479" y="474"/>
      <point x="311" y="474" type="curve" smooth="yes"/>
      <point x="212" y="474"/>
      <point x="113" y="426"/>
      <point x="65" y="312" type="curve"/>
      <point x="197" y="240" type="line"/>
      <point x="225" y="285"/>
      <point x="259" y="306"/>
      <point x="293" y="306" type="curve" smooth="yes"/>
      <point x="345" y="306"/>
      <point x="387" y="258"/>
      <point x="388" y="192" type="curve"/>
      <point x="245" y="217"/>
      <point x="15" y="174"/>
      <point x="15" y="-75" type="curve" smooth="yes"/>
      <point x="15" y="-124"/>
      <point x="24" y="-188"/>
    </contour>
  </outline>
</glyph>
<glyph name="dammatan-ar" format="2">
  <unicode hex="064C"/>
  <anchor x="230" y="458" name="_top"/>
  <anchor x="229" y="861" name="top"/>
  <outline>
    <contour>
      <point x="83" y="605" type="line"/>
      <point x="289" y="614"/>
      <point x="377" y="672"/>
      <point x="377" y="771" type="curve" smooth="yes"/>
      <point x="377" y="837"/>
      <point x="339" y="881"/>
      <point x="276" y="881" type="curve" smooth="yes"/>
      <point x="213" y="881"/>
      <point x="167" y="840"/>
      <point x="167" y="784" type="curve" smooth="yes"/>
      <point x="167" y="728"/>
      <point x="201" y="698"/>
      <point x="238" y="679" type="curve"/>
      <point x="289" y="721" type="line"/>
      <point x="263" y="734"/>
      <point x="241" y="751"/>
      <point x="241" y="776" type="curve" smooth="yes"/>
      <point x="241" y="796"/>
      <point x="254" y="810"/>
      <point x="274" y="810" type="curve" smooth="yes"/>
      <point x="293" y="810"/>
      <point x="304" y="794"/>
      <point x="304" y="770" type="curve" smooth="yes"/>
      <point x="304" y="733"/>
      <point x="255" y="691"/>
      <point x="146" y="680" type="curve"/>
      <point x="172" y="726"/>
      <point x="154" y="799"/>
      <point x="84" y="799" type="curve" smooth="yes"/>
      <point x="49" y="799"/>
      <point x="22" y="783"/>
      <point x="6" y="765" type="curve"/>
      <point x="33" y="709" type="line"/>
      <point x="40" y="716"/>
      <point x="51" y="725"/>
      <point x="66" y="725" type="curve" smooth="yes"/>
      <point x="90" y="725"/>
      <point x="97" y="691"/>
      <point x="68" y="671" type="curve"/>
    </contour>
  </outline>
</glyph>
<glyph name="dotvowelbelow-ar" format="2">
  <unicode hex="065C"/>
  <anchor x="109" y="2" name="_bottom"/>
  <anchor x="113" y="-299" name="bottom"/>
  <outline>
    <contour>
      <point x="113" y="-292" type="curve" smooth="yes"/>
      <point x="166" y="-292"/>
      <point x="206" y="-252"/>
      <point x="206" y="-199" type="curve" smooth="yes"/>
      <point x="206" y="-145"/>
      <point x="166" y="-106"/>
      <point x="113" y="-106" type="curve" smooth="yes"/>
      <point x="60" y="-106"/>
      <point x="20" y="-145"/>
      <point x="20" y="-199" type="curve" smooth="yes"/>
      <point x="20" y="-252"/>
      <point x="60" y="-292"/>
    </contour>
  </outline>
</glyph>
<glyph name="one-ar" format="2">
  <advance width="350"/>
  <unicode hex="0661"/>
  <outline>
    <contour>
      <point x="300" y="0" type="line"/>
      <point x="300" y="139"/>
      <point x="281" y="471"/>
      <point x="211" y="692" type="curve"/>
      <point x="35" y="646" type="line"/>
      <point x="94" y="428"/>
      <point x="124" y="57"/>
      <point x="124" y="-7" type="curve"/>
    </contour>
  </outline>
</glyph>
<glyph name="endofayah-ar" format="2">
  <advance width="1370"/>
  <unicode hex="06DD"/>
  <outline>
    <contour>
      <point x="1009" y="718" type="curve"/>
      <point x="1044" y="758" type="line"/>
      <point x="939" y="839"/>
      <point x="813" y="879"/>
      <point x="687" y="879" type="curve" smooth="yes"/>
      <point x="563" y="879"/>
      <point x="440" y="841"/>
      <point x="337" y="763" type="curve"/>
      <point x="373" y="721" type="line"/>
      <point x="467" y="790"/>
      <point x="578" y="825"/>
      <point x="689" y="825" type="curve" smooth="yes"/>
      <point x="802" y="825"/>
      <point x="914" y="789"/>
    </contour>
    <contour>
      <point x="226" y="-66" type="curve"/>
      <point x="264" y="-29" type="line"/>
      <point x="193" y="66"/>
      <point x="157" y="179"/>
      <point x="157" y="292" type="curve" smooth="yes"/>
      <point x="157" y="407"/>
      <point x="194" y="522"/>
      <point x="268" y="618" type="curve"/>
      <point x="226" y="655" type="line"/>
      <point x="144" y="549"/>
      <point x="102" y="422"/>
      <point x="102" y="294" type="curve" smooth="yes"/>
      <point x="102" y="167"/>
      <point x="144" y="40"/>
    </contour>
    <contour>
      <point x="692" y="-292" type="curve" smooth="yes"/>
      <point x="818" y="-292"/>
      <point x="944" y="-252"/>
      <point x="1049" y="-171" type="curve"/>
      <point x="1014" y="-131" type="line"/>
      <point x="919" y="-202"/>
      <point x="807" y="-238"/>
      <point x="694" y="-238" type="curve" smooth="yes"/>
      <point x="583" y="-238"/>
      <point x="472" y="-203"/>
      <point x="378" y="-134" type="curve"/>
      <point x="342" y="-176" type="line"/>
      <point x="445" y="-254"/>
      <point x="568" y="-292"/>
    </contour>
    <contour>
      <point x="1151" y="-64" type="line"/>
      <point x="1232" y="41"/>
      <point x="1272" y="167"/>
      <point x="1272" y="294" type="curve" smooth="yes"/>
      <point x="1272" y="421"/>
      <point x="1232" y="548"/>
      <point x="1149" y="653" type="curve"/>
      <point x="1114" y="613" type="line"/>
      <point x="1186" y="518"/>
      <point x="1222" y="404"/>
      <point x="1222" y="291" type="curve" smooth="yes"/>
      <point x="1222" y="180"/>
      <point x="1188" y="69"/>
      <point x="1119" y="-24" type="curve"/>
    </contour>
    <contour>
      <point x="380" y="656" type="line"/>
      <point x="1011" y="656" type="line"/>
      <point x="1011" y="711" type="line"/>
      <point x="380" y="711" type="line"/>
    </contour>
    <contour>
      <point x="380" y="-126" type="line"/>
      <point x="1011" y="-126" type="line"/>
      <point x="1011" y="-71" type="line"/>
      <point x="380" y="-71" type="line"/>
    </contour>
    <contour>
      <point x="1079" y="589" type="curve" smooth="yes"/>
      <point x="1128" y="589"/>
      <point x="1174" y="628"/>
      <point x="1174" y="684" type="curve" smooth="yes"/>
      <point x="1174" y="736"/>
      <point x="1132" y="779"/>
      <point x="1079" y="779" type="curve" smooth="yes"/>
      <point x="1027" y="779"/>
      <point x="984" y="736"/>
      <point x="984" y="684" type="curve" smooth="yes"/>
      <point x="984" y="632"/>
      <point x="1028" y="589"/>
    </contour>
    <contour>
      <point x="1079" y="625" type="curve" smooth="yes"/>
      <point x="1049" y="625"/>
      <point x="1020" y="648"/>
      <point x="1020" y="684" type="curve" smooth="yes"/>
      <point x="1020" y="716"/>
      <point x="1048" y="744"/>
      <point x="1080" y="744" type="curve" smooth="yes"/>
      <point x="1109" y="744"/>
      <point x="1139" y="719"/>
      <point x="1139" y="684" type="curve" smooth="yes"/>
      <point x="1139" y="654"/>
      <point x="1115" y="625"/>
    </contour>
    <contour>
      <point x="303" y="589" type="curve" smooth="yes"/>
      <point x="354" y="589"/>
      <point x="398" y="632"/>
      <point x="398" y="684" type="curve" smooth="yes"/>
      <point x="398" y="736"/>
      <point x="355" y="779"/>
      <point x="303" y="779" type="curve" smooth="yes"/>
      <point x="250" y="779"/>
      <point x="208" y="736"/>
      <point x="208" y="684" type="curve" smooth="yes"/>
      <point x="208" y="628"/>
      <point x="254" y="589"/>
    </contour>
    <contour>
      <point x="303" y="625" type="curve" smooth="yes"/>
      <point x="267" y="625"/>
      <point x="243" y="654"/>
      <point x="243" y="684" type="curve" smooth="yes"/>
      <point x="243" y="719"/>
      <point x="273" y="744"/>
      <point x="302" y="744" type="curve" smooth="yes"/>
      <point x="334" y="744"/>
      <point x="362" y="716"/>
      <point x="362" y="684" type="curve" smooth="yes"/>
      <point x="362" y="648"/>
      <point x="333" y="625"/>
    </contour>
    <contour>
      <point x="297" y="-193" type="curve" smooth="yes"/>
      <point x="349" y="-193"/>
      <point x="392" y="-150"/>
      <point x="392" y="-98" type="curve" smooth="yes"/>
      <point x="392" y="-47"/>
      <point x="348" y="-3"/>
      <point x="297" y="-3" type="curve" smooth="yes"/>
      <point x="248" y="-3"/>
      <point x="202" y="-43"/>
      <point x="202" y="-98" type="curve" smooth="yes"/>
      <point x="202" y="-151"/>
      <point x="245" y="-193"/>
    </contour>
    <contour>
      <point x="297" y="-157" type="curve" smooth="yes"/>
      <point x="267" y="-157"/>
      <point x="238" y="-134"/>
      <point x="238" y="-98" type="curve" smooth="yes"/>
      <point x="238" y="-65"/>
      <point x="266" y="-39"/>
      <point x="298" y="-39" type="curve" smooth="yes"/>
      <point x="327" y="-39"/>
      <point x="357" y="-62"/>
      <point x="357" y="-98" type="curve" smooth="yes"/>
      <point x="357" y="-128"/>
      <point x="333" y="-157"/>
    </contour>
    <contour>
      <point x="1085" y="-193" type="curve" smooth="yes"/>
      <point x="1137" y="-193"/>
      <point x="1180" y="-151"/>
      <point x="1180" y="-98" type="curve" smooth="yes"/>
      <point x="1180" y="-43"/>
      <point x="1134" y="-3"/>
      <point x="1085" y="-3" type="curve" smooth="yes"/>
      <point x="1034" y="-3"/>
      <point x="990" y="-47"/>
      <point x="990" y="-98" type="curve" smooth="yes"/>
      <point x="990" y="-150"/>
      <point x="1033" y="-193"/>
    </contour>
    <contour>
      <point x="1085" y="-157" type="curve" smooth="yes"/>
      <point x="1049" y="-157"/>
      <point x="1025" y="-128"/>
      <point x="1025" y="-98" type="curve" smooth="yes"/>
      <point x="1025" y="-62"/>
      <point x="1055" y="-39"/>
      <point x="1084" y="-39" type="curve" smooth="yes"/>
      <point x="1116" y="-39"/>
      <point x="1144" y="-65"/>
      <point x="1144" y="-98" type="curve" smooth="yes"/>
      <point x="1144" y="-134"/>
      <point x="1115" y="-157"/>
    </contour>
  </outline>
</glyph>
<glyph name="meemStopabove-ar" format="2">
  <unicode hex="06E2"/>
  <anchor x="119" y="458" name="_top"/>
  <anchor x="140" y="836" name="top"/>
  <outline>
    <contour>
      <point x="50" y="573" type="curve"/>
      <point x="107" y="583" type="line"/>
      <point x="102" y="604"/>
      <point x="97" y="635"/>
      <point x="97" y="651" type="curve" smooth="yes"/>
      <point x="97" y="696"/>
      <point x="140" y="695"/>
      <point x="213" y="673" type="curve"/>
      <point x="219" y="683"/>
      <point x="227" y="712"/>
      <point x="227" y="744" type="curve" smooth="yes"/>
      <point x="227" y="796"/>
      <point x="197" y="839"/>
      <point x="140" y="839" type="curve" smooth="yes"/>
      <point x="109" y="839"/>
      <point x="74" y="819"/>
      <point x="59" y="793" type="curve"/>
      <point x="95" y="752" type="line"/>
      <point x="105" y="768"/>
      <point x="121" y="776"/>
      <point x="136" y="776" type="curve" smooth="yes"/>
      <point x="165" y="776"/>
      <point x="174" y="750"/>
      <point x="163" y="698" type="curve"/>
      <point x="197" y="727" type="line"/>
      <point x="145" y="758"/>
      <point x="38" y="751"/>
      <point x="38" y="658" type="curve" smooth="yes"/>
      <point x="38" y="640"/>
      <point x="42" y="608"/>
    </contour>
  </outline>
</glyph>
<glyph name="hyphentwo" format="2">
  <advance width="318"/>
  <unicode hex="2010"/>
  <outline>
    <contour>
      <point x="21" y="192" type="line"/>
      <point x="297" y="192" type="line"/>
      <point x="297" y="344" type="line"/>
      <point x="21" y="344" type="line"/>
    </contour>
  </outline>
</glyph>
<glyph name="yehbarree-ar.fina" format="2">
  <advance width="569"/>
  <unicode hex="FBAF"/>
  <anchor x="443" y="-271" name="bottom"/>
  <anchor x="185" y="142" name="top"/>
  <outline>
    <contour>
      <point x="447" y="-271" type="curve" smooth="yes"/>
      <point x="621" y="-271"/>
      <point x="809" y="-252"/>
      <point x="881" y="-233" type="curve"/>
      <point x="895" y="-82" type="line"/>
      <point x="821" y="-92"/>
      <point x="665" y="-109"/>
      <point x="450" y="-109" type="curve" smooth="yes"/>
      <point x="233" y="-109"/>
      <point x="181" y="-98"/>
      <point x="181" y="-67" type="curve" smooth="yes"/>
      <point x="181" y="-32"/>
      <point x="287" y="-5"/>
      <point x="569" y="-5" type="curve" smooth="yes"/>
      <point x="635" y="-5"/>
      <point x="669" y="30"/>
      <point x="669" y="81" type="curve" smooth="yes"/>
      <point x="669" y="126"/>
      <point x="643" y="163"/>
      <point x="579" y="163" type="curve" smooth="yes"/>
      <point x="152" y="163"/>
      <point x="0" y="73"/>
      <point x="0" y="-81" type="curve" smooth="yes"/>
      <point x="0" y="-233"/>
      <point x="167" y="-271"/>
    </contour>
  </outline>
</glyph>
<glyph name="twodotshorizontalabove-ar" format="2">
  <advance width="368"/>
  <unicode hex="FBB4"/>
  <anchor x="177" y="443" name="_top"/>
  <anchor x="177" y="683" name="top"/>
  <outline>
    <contour>
      <point x="272" y="538" type="curve" smooth="yes"/>
      <point x="313" y="538"/>
      <point x="347" y="571"/>
      <point x="347" y="611" type="curve" smooth="yes"/>
      <point x="347" y="653"/>
      <point x="313" y="684"/>
      <point x="272" y="684" type="curve" smooth="yes"/>
      <point x="231" y="684"/>
      <point x="200" y="653"/>
      <point x="200" y="611" type="curve" smooth="yes"/>
      <point x="200" y="571"/>
      <point x="231" y="538"/>
    </contour>
    <contour>
      <point x="94" y="538" type="curve" smooth="yes"/>
      <point x="134" y="538"/>
      <point x="168" y="571"/>
      <point x="168" y="611" type="curve" smooth="yes"/>
      <point x="168" y="653"/>
      <point x="134" y="684"/>
      <point x="94" y="684" type="curve" smooth="yes"/>
      <point x="53" y="684"/>
      <point x="21" y="653"/>
      <point x="21" y="611" type="curve" smooth="yes"/>
      <point x="21" y="571"/>
      <point x="53" y="538"/>
    </contour>
  </outline>
</glyph>
<glyph name="threedotsupbelow-ar" format="2">
  <advance width="439"/>
  <unicode hex="FBB7"/>
  <anchor x="210" y="99" name="_bottom"/>
  <anchor x="207" y="-277" name="bottom"/>
  <outline>
    <contour>
      <point x="207" y="-291" type="curve" smooth="yes"/>
      <point x="247" y="-291"/>
      <point x="279" y="-259"/>
      <point x="279" y="-218" type="curve" smooth="yes"/>
      <point x="279" y="-178"/>
      <point x="247" y="-143"/>
      <point x="207" y="-143" type="curve" smooth="yes"/>
      <point x="165" y="-143"/>
      <point x="134" y="-178"/>
      <point x="134" y="-218" type="curve" smooth="yes"/>
      <point x="134" y="-259"/>
      <point x="165" y="-291"/>
    </contour>
    <contour>
      <point x="115" y="-135" type="curve" smooth="yes"/>
      <point x="156" y="-135"/>
      <point x="188" y="-104"/>
      <point x="188" y="-62" type="curve" smooth="yes"/>
      <point x="188" y="-22"/>
      <point x="156" y="13"/>
      <point x="115" y="13" type="curve" smooth="yes"/>
      <point x="74" y="13"/>
      <point x="42" y="-22"/>
      <point x="42" y="-62" type="curve" smooth="yes"/>
      <point x="42" y="-104"/>
      <point x="74" y="-135"/>
    </contour>
    <contour>
      <point x="303" y="-135" type="curve" smooth="yes"/>
      <point x="345" y="-135"/>
      <point x="376" y="-104"/>
      <point x="376" y="-62" type="curve" smooth="yes"/>
      <point x="376" y="-22"/>
      <point x="345" y="13"/>
      <point x="303" y="13" type="curve" smooth="yes"/>
      <point x="262" y="13"/>
      <point x="230" y="-22"/>
      <point x="230" y="-62" type="curve" smooth="yes"/>
      <point x="230" y="-104"/>
      <point x="262" y="-135"/>
    </contour>
  </outline>
</glyph>
<glyph name="threedotsdownbelow-ar" format="2">
  <advance width="374"/>
  <unicode hex="FBB9"/>
  <anchor x="187" y="103" name="_bottom"/>
  <anchor x="186" y="-276" name="bottom"/>
  <outline>
    <contour>
      <point x="186" y="-130" type="curve" smooth="yes"/>
      <point x="227" y="-130"/>
      <point x="260" y="-98"/>
      <point x="260" y="-58" type="curve" smooth="yes"/>
      <point x="260" y="-18"/>
      <point x="227" y="17"/>
      <point x="186" y="17" type="curve" smooth="yes"/>
      <point x="143" y="17"/>
      <point x="112" y="-18"/>
      <point x="112" y="-58" type="curve" smooth="yes"/>
      <point x="112" y="-98"/>
      <point x="143" y="-130"/>
    </contour>
    <contour>
      <point x="96" y="-292" type="curve" smooth="yes"/>
      <point x="134" y="-292"/>
      <point x="167" y="-257"/>
      <point x="167" y="-216" type="curve" smooth="yes"/>
      <point x="167" y="-179"/>
      <point x="134" y="-141"/>
      <point x="96" y="-141" type="curve" smooth="yes"/>
      <point x="54" y="-141"/>
      <point x="20" y="-179"/>
      <point x="20" y="-216" type="curve" smooth="yes"/>
      <point x="20" y="-257"/>
      <point x="54" y="-292"/>
    </contour>
    <contour>
      <point x="279" y="-292" type="curve" smooth="yes"/>
      <point x="320" y="-292"/>
      <point x="354" y="-257"/>
      <point x="354" y="-216" type="curve" smooth="yes"/>
      <point x="354" y="-179"/>
      <point x="320" y="-141"/>
      <point x="279" y="-141" type="curve" smooth="yes"/>
      <point x="239" y="-141"/>
      <point x="209" y="-179"/>
      <point x="209" y="-216" type="curve" smooth="yes"/>
      <point x="209" y="-257"/>
      <point x="239" y="-292"/>
    </contour>
  </outline>
</glyph>
<glyph name="hah-ar.fina" format="2">
  <advance width="771"/>
  <unicode hex="FEA2"/>
  <anchor x="380" y="75" name="center"/>
  <anchor x="398" y="-271" name="bottom"/>
  <anchor x="351" y="620" name="top"/>
  <outline>
    <contour>
      <point x="771" y="-5" type="curve" smooth="yes"/>
      <point x="838" y="-5"/>
      <point x="871" y="30"/>
      <point x="871" y="81" type="curve" smooth="yes"/>
      <point x="871" y="126"/>
      <point x="845" y="163"/>
      <point x="781" y="163" type="curve" smooth="yes"/>
      <point x="661" y="163"/>
      <point x="609" y="176"/>
      <point x="588" y="383" type="curve"/>
      <point x="466" y="313" type="line"/>
      <point x="494" y="34"/>
      <point x="594" y="-5"/>
    </contour>
    <component base="hah-ar"/>
  </outline>
</glyph>
<glyph name="ain-ar.fina" format="2">
  <advance width="628"/>
  <unicode hex="FECA"/>
  <anchor x="318" y="-271" name="bottom"/>
  <anchor x="316" y="627" name="top"/>
  <outline>
    <contour>
      <point x="318" y="-271" type="curve" smooth="yes"/>
      <point x="395" y="-271"/>
      <point x="486" y="-249"/>
      <point x="573" y="-204" type="curve"/>
      <point x="520" y="-57" type="line"/>
      <point x="443" y="-90"/>
      <point x="378" y="-103"/>
      <point x="321" y="-103" type="curve" smooth="yes"/>
      <point x="240" y="-103"/>
      <point x="161" y="-87"/>
      <point x="161" y="-20" type="curve" smooth="yes"/>
      <point x="161" y="136"/>
      <point x="521" y="214"/>
      <point x="521" y="470" type="curve" smooth="yes"/>
      <point x="521" y="565"/>
      <point x="453" y="627"/>
      <point x="316" y="627" type="curve" smooth="yes"/>
      <point x="140" y="627"/>
      <point x="30" y="531"/>
      <point x="30" y="454" type="curve" smooth="yes"/>
      <point x="30" y="440"/>
      <point x="43" y="385"/>
      <point x="53" y="375" type="curve" smooth="yes"/>
      <point x="92" y="336"/>
      <point x="144" y="290"/>
      <point x="198" y="206" type="curve"/>
      <point x="376" y="62"/>
      <point x="488" y="-5"/>
      <point x="628" y="-5" type="curve" smooth="yes"/>
      <point x="694" y="-5"/>
      <point x="728" y="30"/>
      <point x="728" y="81" type="curve" smooth="yes"/>
      <point x="728" y="126"/>
      <point x="702" y="163"/>
      <point x="638" y="163" type="curve" smooth="yes"/>
      <point x="548" y="163"/>
      <point x="466" y="204"/>
      <point x="319" y="313" type="curve"/>
      <point x="280" y="364"/>
      <point x="232" y="415"/>
      <point x="187" y="458" type="curve"/>
      <point x="217" y="475"/>
      <point x="251" y="485"/>
      <point x="291" y="485" type="curve" smooth="yes"/>
      <point x="330" y="485"/>
      <point x="352" y="465"/>
      <point x="352" y="436" type="curve" smooth="yes"/>
      <point x="352" y="276"/>
      <point x="-20" y="225"/>
      <point x="-20" y="-42" type="curve" smooth="yes"/>
      <point x="-20" y="-197"/>
      <point x="111" y="-271"/>
    </contour>
  </outline>
</glyph>
<glyph name="threedotsdownbelow-ar.restricted" format="2">
  <anchor x="187" y="0" name="_bottom"/>
  <anchor x="186" y="-246" name="bottom"/>
  <outline>
    <contour>
      <point x="186" y="-131" type="curve" smooth="yes"/>
      <point x="214" y="-131"/>
      <point x="237" y="-108"/>
      <point x="237" y="-81" type="curve" smooth="yes"/>
      <point x="237" y="-53"/>
      <point x="214" y="-29"/>
      <point x="186" y="-29" type="curve" smooth="yes"/>
      <point x="156" y="-29"/>
      <point x="136" y="-53"/>
      <point x="136" y="-81" type="curve" smooth="yes"/>
      <point x="136" y="-108"/>
      <point x="156" y="-131"/>
    </contour>
    <contour>
      <point x="124" y="-242" type="curve" smooth="yes"/>
      <point x="151" y="-242"/>
      <point x="173" y="-217"/>
      <point x="173" y="-189" type="curve" smooth="yes"/>
      <point x="173" y="-164"/>
      <point x="151" y="-138"/>
      <point x="124" y="-138" type="curve" smooth="yes"/>
      <point x="95" y="-138"/>
      <point x="72" y="-164"/>
      <point x="72" y="-189" type="curve" smooth="yes"/>
      <point x="72" y="-217"/>
      <point x="95" y="-242"/>
    </contour>
    <contour>
      <point x="251" y="-242" type="curve" smooth="yes"/>
      <point x="279" y="-242"/>
      <point x="302" y="-217"/>
      <point x="302" y="-189" type="curve" smooth="yes"/>
      <point x="302" y="-164"/>
      <point x="279" y="-138"/>
      <point x="251" y="-138" type="curve" smooth="yes"/>
      <point x="222" y="-138"/>
      <point x="202" y="-164"/>
      <point x="202" y="-189" type="curve" smooth="yes"/>
      <point x="202" y="-217"/>
      <point x="222" y="-242"/>
    </contour>
  </outline>
</glyph>
<glyph name="threedotsupbelow-ar.restricted" format="2">
  <anchor x="210" y="0" name="_bottom"/>
  <anchor x="207" y="-238" name="bottom"/>
  <outline>
    <contour>
      <point x="207" y="-238" type="curve" smooth="yes"/>
      <point x="235" y="-238"/>
      <point x="257" y="-216"/>
      <point x="257" y="-189" type="curve" smooth="yes"/>
      <point x="257" y="-162"/>
      <point x="235" y="-137"/>
      <point x="207" y="-137" type="curve" smooth="yes"/>
      <point x="179" y="-137"/>
      <point x="158" y="-162"/>
      <point x="158" y="-189" type="curve" smooth="yes"/>
      <point x="158" y="-216"/>
      <point x="179" y="-238"/>
    </contour>
    <contour>
      <point x="144" y="-132" type="curve" smooth="yes"/>
      <point x="173" y="-132"/>
      <point x="194" y="-111"/>
      <point x="194" y="-82" type="curve" smooth="yes"/>
      <point x="194" y="-55"/>
      <point x="173" y="-31"/>
      <point x="144" y="-31" type="curve" smooth="yes"/>
      <point x="117" y="-31"/>
      <point x="95" y="-55"/>
      <point x="95" y="-82" type="curve" smooth="yes"/>
      <point x="95" y="-111"/>
      <point x="117" y="-132"/>
    </contour>
    <contour>
      <point x="274" y="-132" type="curve" smooth="yes"/>
      <point x="302" y="-132"/>
      <point x="323" y="-111"/>
      <point x="323" y="-82" type="curve" smooth="yes"/>
      <point x="323" y="-55"/>
      <point x="302" y="-31"/>
      <point x="274" y="-31" type="curve" smooth="yes"/>
      <point x="245" y="-31"/>
      <point x="224" y="-55"/>
      <point x="224" y="-82" type="curve" smooth="yes"/>
      <point x="224" y="-111"/>
      <point x="245" y="-132"/>
    </contour>
  </outline>
</glyph>
